<svg width="1545" height="1014" viewBox="0 0 1545 1014" fill="none" xmlns="http://www.w3.org/2000/svg">
<path fill-rule="evenodd" clip-rule="evenodd" d="M229.594 26.2369C277.979 30.047 306.477 80.1252 330.925 121.375C348.781 151.503 341.809 186.324 345.056 221.052C348.928 262.471 381.359 311.519 351.448 340.918C321.536 370.318 271.795 337.15 229.594 334.537C192.342 332.23 153.025 347.385 122.172 326.721C86.6433 302.925 62.3413 263.278 60.1523 221.052C57.8716 177.059 81.5153 137.499 110.628 104.028C142.808 67.0278 180.25 22.3513 229.594 26.2369Z" fill="white" fill-opacity="0.5"/>
<path fill-rule="evenodd" clip-rule="evenodd" d="M1312.38 23.7518C1341.28 13.5579 1378.35 -12.5788 1401.23 7.20795C1425.89 28.5331 1387.6 71.9318 1401.53 100.853C1415.56 130.013 1475.7 130.402 1476 162.523C1476.28 192.411 1425.62 194.865 1402.6 214.991C1383.31 231.862 1378.07 266.382 1352.35 270.634C1326.04 274.983 1309.67 239.2 1283.39 234.697C1251.63 229.255 1213.76 262.396 1188.92 242.631C1165.64 224.108 1186.93 186.373 1186.19 157.355C1185.56 132.418 1170.16 104.597 1184.89 84.0463C1199.84 63.1893 1233.81 69.0984 1257.46 57.9101C1277.43 48.4654 1291.48 31.1213 1312.38 23.7518Z" fill="white" fill-opacity="0.5"/>
<path fill-rule="evenodd" clip-rule="evenodd" d="M1265.24 302.119C1303.35 295.593 1342.91 267.379 1377.51 284.36C1411.7 301.141 1417.61 346.552 1428.81 382.396C1438.78 414.325 1444.5 447.173 1438.64 480.069C1432.91 512.314 1421.62 545.71 1396.03 566.727C1371.61 586.777 1336.86 585.039 1305.34 589.528C1278.17 593.397 1250.98 598.766 1224.65 591.131C1198.35 583.506 1180.45 562.122 1157.92 546.785C1126.71 525.539 1073.9 520.186 1066.71 483.61C1059.63 447.625 1107.56 424.892 1127.9 394.141C1144.62 368.853 1150.24 335.927 1175.62 318.922C1201.25 301.75 1234.66 307.354 1265.24 302.119Z" fill="white" fill-opacity="0.5"/>
<path fill-rule="evenodd" clip-rule="evenodd" d="M569.333 105.412C610.138 114.433 613.316 174.842 647.101 199.102C677.636 221.03 736.952 201.982 751.582 236.284C766.394 271.012 708.411 299.959 706.154 337.557C703.536 381.164 752.543 420.779 738.029 462.06C723.651 502.953 677.777 528.142 635.263 539.181C593.197 550.103 549.792 535.515 508.643 521.618C469.053 508.247 429.353 492.072 402.418 460.541C375.684 429.246 353.629 388.174 360.156 347.796C366.475 308.709 415.85 292.607 435.175 257.899C452.342 227.067 441.94 185.493 465.323 158.915C491.46 129.207 530.375 96.7988 569.333 105.412Z" fill="white" fill-opacity="0.5"/>
<path fill-rule="evenodd" clip-rule="evenodd" d="M947.164 87.6984C974.209 92.0522 999.134 98.4943 1024.69 108.771C1060.64 123.229 1102.84 127.722 1126.37 159.763C1153.97 197.35 1186.25 254.829 1160.7 293.984C1132.67 336.92 1062.36 299.978 1018.75 324.646C985.15 343.655 985.128 410.781 947.164 414.779C910.244 418.666 888.551 370.484 864.346 340.904C845.531 317.912 839.664 288.301 823.251 263.355C796.557 222.783 731.349 198.468 738.552 149.713C745.349 103.708 807.645 93.351 850.239 80.6889C882.185 71.1925 914.349 82.416 947.164 87.6984Z" fill="white" fill-opacity="0.5"/>
<path fill-rule="evenodd" clip-rule="evenodd" d="M182.985 366.621C218.046 362.498 256.225 365.28 284.378 386.265C312.32 407.094 325.27 442.379 330.413 476.514C335.008 507.002 329.92 539.972 311.27 564.726C294.844 586.527 263.989 588.747 238.346 598.713C220.02 605.835 201.811 608.864 182.985 614.584C153.042 623.682 125.466 651.509 95.6305 642.075C65.5811 632.572 42.3537 600.397 40.0955 569.399C37.891 539.138 74.4744 520.856 84.7152 492.242C94.5203 464.845 79.7818 431.221 97.784 408.209C117.613 382.861 150.721 370.415 182.985 366.621Z" fill="white" fill-opacity="0.5"/>
<path fill-rule="evenodd" clip-rule="evenodd" d="M197.558 646.002C230.562 636.268 271.556 619.893 298.354 642.083C325.818 664.825 301.398 715.558 319.359 746.86C341.036 784.636 404.48 792.39 409.628 836.004C414.425 876.651 371.818 907.292 341.381 933.447C314.234 956.776 281.104 970.242 246.318 976.342C214.367 981.945 183.53 971.979 151.522 966.741C114.253 960.643 71.6076 968.545 43.0018 943.076C13.729 917.012 5.62488 873.343 1.93809 833.556C-1.63587 794.987 -2.91254 750.136 22.486 721.676C47.7006 693.422 93.6733 707.16 127.963 692.339C153.942 681.11 170.483 653.988 197.558 646.002Z" fill="white" fill-opacity="0.5"/>
<path fill-rule="evenodd" clip-rule="evenodd" d="M892.594 429.068C935.395 429.945 979.991 439.318 1008.24 468.473C1035.24 496.347 1033.84 536.205 1032.3 573.272C1030.85 608.439 1031.83 650.501 999.86 670.48C969.103 689.703 929.944 659.731 892.594 660.59C853.085 661.499 813.946 693.487 779.74 675.546C742.266 655.891 727.618 612.486 726.112 573.272C724.554 532.705 739.221 491.671 771.601 463.624C803.38 436.097 848.646 428.167 892.594 429.068Z" fill="white" fill-opacity="0.5"/>
<path fill-rule="evenodd" clip-rule="evenodd" d="M592.539 572.871C641.381 584.829 642.803 656.497 680.556 690.271C724.398 729.492 810.506 722.152 824.052 779.985C837.59 837.786 777.607 884.589 735.762 925.969C694.792 966.485 648.908 1018.11 592.539 1008.93C538.035 1000.05 522.741 930.096 488.771 885.754C461.882 850.653 424.108 823.95 417.152 779.985C409.036 728.681 415.56 672.886 448.872 633.547C484.083 591.967 540.142 560.043 592.539 572.871Z" fill="white" fill-opacity="0.5"/>
<path fill-rule="evenodd" clip-rule="evenodd" d="M1359.4 624.681C1403.99 620.426 1451.42 622.743 1485.99 649.536C1523.33 678.472 1544.57 723.023 1544.99 768.502C1545.41 814.339 1528.01 863.047 1488.2 889.539C1451.77 913.784 1403.94 889.205 1359.4 892.018C1308.15 895.255 1251.82 937.512 1212.04 906.981C1172.32 876.499 1189.58 815.962 1198.47 768.502C1205.57 730.571 1226.45 698.012 1256.15 671.472C1284.93 645.748 1319.88 628.452 1359.4 624.681Z" fill="white" fill-opacity="0.5"/>
<path fill-rule="evenodd" clip-rule="evenodd" d="M978.399 704.915C1006.77 699.255 1032.15 684.172 1060.91 684.109C1096.37 684.032 1142.18 677.79 1161.83 704.513C1182.02 731.959 1157.88 770.816 1149.19 804.156C1143.18 827.217 1132.07 847.81 1119.11 868.492C1107.24 887.425 1093.74 904.334 1076.81 919.648C1056.06 938.414 1036.55 959.252 1009.39 967.74C976.639 977.979 940.926 982.256 909.122 972.069C873.538 960.671 826.211 943.517 823.405 908.166C820.292 868.954 884.275 849.531 896.355 811.225C906.046 780.496 862.615 745.862 882.865 719.622C902.386 694.327 946.121 711.353 978.399 704.915Z" fill="#FFFEFE" fill-opacity="0.5"/>
</svg>
