<svg width="38" height="60" viewBox="0 0 38 60" fill="none" xmlns="http://www.w3.org/2000/svg">
<path d="M30.25 3.75C31.2446 3.75 32.1984 4.14509 32.9016 4.84835C33.6049 5.55161 34 6.50544 34 7.5V52.5C34 53.4946 33.6049 54.4484 32.9016 55.1516C32.1984 55.8549 31.2446 56.25 30.25 56.25H7.75C6.75544 56.25 5.80161 55.8549 5.09835 55.1516C4.39509 54.4484 4 53.4946 4 52.5V7.5C4 6.50544 4.39509 5.55161 5.09835 4.84835C5.80161 4.14509 6.75544 3.75 7.75 3.75H30.25ZM7.75 0C5.76088 0 3.85322 0.790176 2.4467 2.1967C1.04018 3.60322 0.25 5.51088 0.25 7.5V52.5C0.25 54.4891 1.04018 56.3968 2.4467 57.8033C3.85322 59.2098 5.76088 60 7.75 60H30.25C32.2391 60 34.1468 59.2098 35.5533 57.8033C36.9598 56.3968 37.75 54.4891 37.75 52.5V7.5C37.75 5.51088 36.9598 3.60322 35.5533 2.1967C34.1468 0.790176 32.2391 0 30.25 0L7.75 0Z" fill="black"/>
<path d="M19 52.5C19.9946 52.5 20.9484 52.1049 21.6516 51.4016C22.3549 50.6984 22.75 49.7446 22.75 48.75C22.75 47.7554 22.3549 46.8016 21.6516 46.0984C20.9484 45.3951 19.9946 45 19 45C18.0054 45 17.0516 45.3951 16.3484 46.0984C15.6451 46.8016 15.25 47.7554 15.25 48.75C15.25 49.7446 15.6451 50.6984 16.3484 51.4016C17.0516 52.1049 18.0054 52.5 19 52.5Z" fill="black"/>
</svg>
