<svg width="60" height="60" viewBox="0 0 60 60" fill="none" xmlns="http://www.w3.org/2000/svg">
<path d="M52.5 15V7.5H0V48.75C0 49.7446 0.395088 50.6984 1.09835 51.4016C1.80161 52.1049 2.75544 52.5 3.75 52.5H54.375C55.8668 52.5 57.2976 51.9074 58.3525 50.8525C59.4074 49.7976 60 48.3668 60 46.875V15H52.5ZM48.75 48.75H3.75V11.25H48.75V48.75ZM7.5 18.75H45V22.5H7.5V18.75ZM30 26.25H45V30H30V26.25ZM30 33.75H45V37.5H30V33.75ZM30 41.25H41.25V45H30V41.25ZM7.5 26.25H26.25V45H7.5V26.25Z" fill="black"/>
</svg>
