<svg width="916" height="867" viewBox="0 0 916 867" fill="none" xmlns="http://www.w3.org/2000/svg">
<path d="M815.812 729.039H811.562C822.325 729.039 831.041 720.612 831.041 710.222V262.66C831.041 252.256 822.325 243.844 811.562 243.844H104.839C94.0761 243.844 85.3454 252.256 85.3454 262.66V710.236C85.3454 720.626 94.0761 729.052 104.839 729.052H100.188L28.625 794.782C28.625 817.337 47.9183 839.906 71.5196 839.906H844.495C866.751 839.906 887.375 817.391 887.375 794.768L815.812 729.039ZM458.2 254.343C459.693 254.291 461.182 254.525 462.577 255.03C463.973 255.534 465.247 256.3 466.323 257.282C467.398 258.263 468.254 259.439 468.839 260.74C469.424 262.041 469.726 263.441 469.727 264.855C469.728 266.269 469.428 267.669 468.845 268.97C468.262 270.272 467.407 271.45 466.333 272.432C465.258 273.414 463.986 274.182 462.591 274.689C461.196 275.195 459.708 275.431 458.215 275.381C455.336 275.285 452.609 274.135 450.608 272.175C448.607 270.214 447.487 267.595 447.486 264.868C447.484 262.142 448.599 259.521 450.598 257.558C452.597 255.595 455.322 254.442 458.2 254.343ZM105.984 742.586H810.002L852.052 781.221H537.32L531.624 774.068H384.777L379.067 781.221H63.9196L105.984 742.586ZM519.773 824.165H396.199C391.962 824.165 380.684 824.165 380.684 810.51H535.302C535.302 824.165 523.795 824.165 519.773 824.165Z" fill="black"/>
</svg>
