<svg width="250" height="516" viewBox="0 0 250 516" fill="none" xmlns="http://www.w3.org/2000/svg">
<path d="M213.897 0H36.1027C16.1743 0 0 16.6563 0 37.2593V478.741C0 499.308 16.1392 516 36.1027 516H213.897C233.826 516 250 499.344 250 478.759V37.2593C250 27.3775 246.196 17.9005 239.426 10.913C232.655 3.92552 223.472 0 213.897 0ZM106.975 40.9889H143.043C144.797 40.9889 146.253 42.4372 146.253 44.2477C146.253 46.0582 144.797 47.5065 143.025 47.5065H106.975C105.221 47.5065 103.782 46.0582 103.782 44.2477C103.782 42.4372 105.186 40.9889 106.94 40.9889H106.975ZM81.8013 37.2593C83.4762 37.2593 85.0825 37.946 86.2669 39.1683C87.4512 40.3906 88.1166 42.0484 88.1166 43.777C88.1166 45.5056 87.4512 47.1634 86.2669 48.3857C85.0825 49.608 83.4762 50.2947 81.8013 50.2947C80.1264 50.2947 78.52 49.608 77.3357 48.3857C76.1513 47.1634 75.4859 45.5056 75.4859 43.777C75.4859 42.0484 76.1513 40.3906 77.3357 39.1683C78.52 37.946 80.1264 37.2593 81.8013 37.2593ZM125.009 497.388C121.691 497.388 118.407 496.714 115.342 495.404C112.277 494.094 109.492 492.173 107.146 489.753C104.801 487.332 102.94 484.458 101.67 481.295C100.401 478.132 99.7474 474.741 99.7474 471.318C99.7474 467.894 100.401 464.504 101.67 461.341C102.94 458.178 104.801 455.304 107.146 452.883C109.492 450.462 112.277 448.542 115.342 447.232C118.407 445.921 121.691 445.247 125.009 445.247C131.708 445.247 138.134 447.994 142.871 452.883C147.609 457.772 150.27 464.403 150.27 471.318C150.27 478.232 147.609 484.863 142.871 489.753C138.134 494.642 131.708 497.388 125.009 497.388ZM236.457 422.834C236.457 424.316 235.889 425.738 234.877 426.789C233.864 427.841 232.49 428.436 231.054 428.446H18.946C17.5098 428.436 16.1356 427.841 15.1233 426.789C14.111 425.738 13.5429 424.316 13.5429 422.834V91.2835C13.5429 88.2057 15.9638 85.6711 18.946 85.6711H231.036C234.019 85.6711 236.475 88.2057 236.475 91.2835V422.834H236.457Z" fill="black"/>
</svg>
