<svg width="640" height="602" viewBox="0 0 640 602" fill="none" xmlns="http://www.w3.org/2000/svg">
<path d="M189 105H107C82.8851 165.111 40.0065 279.354 16.8639 331L6.00012 359C5.71899 360.406 4.63165 361.645 2.37812 357.44C1.47926 357.829 1 356.91 1 354.5V401L107 134V412.5L70.0001 418.5V426.5H189V418.5L152.5 412.5L149.5 120.5L189 115V105Z" fill="white"/>
<path d="M107 105H189V115L149.5 120.5L152.5 412.5L189 418.5V426.5H70.0001V418.5L107 412.5V134L1 401V601H639V1H1V354.5C1.50111 355.69 1.95972 356.659 2.37812 357.44C4.71675 356.426 9.89568 346.551 16.8639 331C40.0065 279.354 82.8851 165.111 107 105Z" fill="black" fill-opacity="0.85"/>
<path d="M107 105V104.5H106.662L106.536 104.814L107 105ZM189 105H189.5V104.5H189V105ZM189 115L189.069 115.495L189.5 115.435V115H189ZM149.5 120.5L149.431 120.005L148.996 120.065L149 120.505L149.5 120.5ZM152.5 412.5L152 412.505L152.004 412.925L152.419 412.993L152.5 412.5ZM189 418.5H189.5V418.075L189.081 418.007L189 418.5ZM189 426.5V427H189.5V426.5H189ZM70.0001 426.5H69.5001V427H70.0001V426.5ZM70.0001 418.5L69.9201 418.006L69.5001 418.075V418.5H70.0001ZM107 412.5L107.08 412.994L107.5 412.925V412.5H107ZM107 134H107.5L106.535 133.816L107 134ZM6.00012 359L5.53398 358.819L5.51832 358.859L5.50983 358.902L6.00012 359ZM639 601V601.5H639.5V601H639ZM639 1H639.5V0.5H639V1ZM1 1V0.5H0.5V1H1ZM1 601H0.5V601.5H1V601ZM107 105.5H189V104.5H107V105.5ZM188.5 105V115H189.5V105H188.5ZM188.931 114.505L149.431 120.005L149.569 120.995L189.069 115.495L188.931 114.505ZM149 120.505L152 412.505L153 412.495L150 120.495L149 120.505ZM152.419 412.993L188.919 418.993L189.081 418.007L152.581 412.007L152.419 412.993ZM188.5 418.5V426.5H189.5V418.5H188.5ZM189 426H70.0001V427H189V426ZM70.5001 426.5V418.5H69.5001V426.5H70.5001ZM70.0802 418.994L107.08 412.994L106.92 412.006L69.9201 418.006L70.0802 418.994ZM107.5 412.5V134H106.5V412.5H107.5ZM106.535 133.816L0.535283 400.815L1.46472 401.185L107.465 134.184L106.535 133.816ZM1 401C1.5 401 1.5 401 1.5 400.999C1.5 400.999 1.5 400.998 1.5 400.997C1.5 400.995 1.5 400.994 1.5 400.992C1.5 400.99 1.5 400.988 1.5 400.986C1.5 400.984 1.5 400.981 1.5 400.978C1.5 400.976 1.5 400.972 1.5 400.969C1.5 400.966 1.5 400.962 1.5 400.958C1.5 400.954 1.5 400.95 1.5 400.945C1.5 400.94 1.5 400.936 1.5 400.931C1.5 400.925 1.5 400.92 1.5 400.914C1.5 400.909 1.5 400.903 1.5 400.897C1.5 400.89 1.5 400.884 1.5 400.877C1.5 400.87 1.5 400.863 1.5 400.856C1.5 400.849 1.5 400.841 1.5 400.833C1.5 400.825 1.5 400.817 1.5 400.809C1.5 400.8 1.5 400.792 1.5 400.783C1.5 400.774 1.5 400.765 1.5 400.755C1.5 400.746 1.5 400.736 1.5 400.726C1.5 400.716 1.5 400.706 1.5 400.695C1.5 400.685 1.5 400.674 1.5 400.663C1.5 400.652 1.5 400.641 1.5 400.629C1.5 400.617 1.5 400.606 1.5 400.593C1.5 400.581 1.5 400.569 1.5 400.556C1.5 400.544 1.5 400.531 1.5 400.518C1.5 400.505 1.5 400.491 1.5 400.478C1.5 400.464 1.5 400.45 1.5 400.436C1.5 400.422 1.5 400.407 1.5 400.393C1.5 400.378 1.5 400.363 1.5 400.348C1.5 400.333 1.5 400.317 1.5 400.302C1.5 400.286 1.5 400.27 1.5 400.254C1.5 400.238 1.5 400.221 1.5 400.204C1.5 400.188 1.5 400.171 1.5 400.154C1.5 400.137 1.5 400.119 1.5 400.101C1.5 400.084 1.5 400.066 1.5 400.048C1.5 400.03 1.5 400.011 1.5 399.993C1.5 399.974 1.5 399.955 1.5 399.936C1.5 399.917 1.5 399.897 1.5 399.878C1.5 399.858 1.5 399.838 1.5 399.818C1.5 399.798 1.5 399.778 1.5 399.757C1.5 399.737 1.5 399.716 1.5 399.695C1.5 399.674 1.5 399.653 1.5 399.631C1.5 399.61 1.5 399.588 1.5 399.566C1.5 399.544 1.5 399.522 1.5 399.499C1.5 399.477 1.5 399.454 1.5 399.431C1.5 399.408 1.5 399.385 1.5 399.362C1.5 399.339 1.5 399.315 1.5 399.291C1.5 399.267 1.5 399.243 1.5 399.219C1.5 399.195 1.5 399.17 1.5 399.146C1.5 399.121 1.5 399.096 1.5 399.071C1.5 399.046 1.5 399.02 1.5 398.995C1.5 398.969 1.5 398.943 1.5 398.917C1.5 398.891 1.5 398.865 1.5 398.838C1.5 398.812 1.5 398.785 1.5 398.758C1.5 398.731 1.5 398.704 1.5 398.677C1.5 398.649 1.5 398.622 1.5 398.594C1.5 398.566 1.5 398.538 1.5 398.51C1.5 398.482 1.5 398.453 1.5 398.425C1.5 398.396 1.5 398.367 1.5 398.338C1.5 398.309 1.5 398.28 1.5 398.25C1.5 398.221 1.5 398.191 1.5 398.161C1.5 398.131 1.5 398.101 1.5 398.071C1.5 398.04 1.5 398.01 1.5 397.979C1.5 397.948 1.5 397.917 1.5 397.886C1.5 397.855 1.5 397.824 1.5 397.792C1.5 397.76 1.5 397.729 1.5 397.697C1.5 397.665 1.5 397.633 1.5 397.6C1.5 397.568 1.5 397.535 1.5 397.502C1.5 397.47 1.5 397.437 1.5 397.403C1.5 397.37 1.5 397.337 1.5 397.303C1.5 397.27 1.5 397.236 1.5 397.202C1.5 397.168 1.5 397.134 1.5 397.1C1.5 397.065 1.5 397.031 1.5 396.996C1.5 396.961 1.5 396.926 1.5 396.891C1.5 396.856 1.5 396.821 1.5 396.785C1.5 396.75 1.5 396.714 1.5 396.678C1.5 396.642 1.5 396.606 1.5 396.57C1.5 396.534 1.5 396.497 1.5 396.461C1.5 396.424 1.5 396.387 1.5 396.35C1.5 396.313 1.5 396.276 1.5 396.239C1.5 396.201 1.5 396.164 1.5 396.126C1.5 396.088 1.5 396.05 1.5 396.012C1.5 395.974 1.5 395.936 1.5 395.897C1.5 395.859 1.5 395.82 1.5 395.781C1.5 395.743 1.5 395.704 1.5 395.665C1.5 395.625 1.5 395.586 1.5 395.547C1.5 395.507 1.5 395.467 1.5 395.427C1.5 395.388 1.5 395.348 1.5 395.307C1.5 395.267 1.5 395.227 1.5 395.186C1.5 395.146 1.5 395.105 1.5 395.064C1.5 395.023 1.5 394.982 1.5 394.941C1.5 394.9 1.5 394.858 1.5 394.817C1.5 394.775 1.5 394.733 1.5 394.691C1.5 394.65 1.5 394.607 1.5 394.565C1.5 394.523 1.5 394.481 1.5 394.438C1.5 394.396 1.5 394.353 1.5 394.31C1.5 394.267 1.5 394.224 1.5 394.181C1.5 394.138 1.5 394.094 1.5 394.051C1.5 394.007 1.5 393.964 1.5 393.92C1.5 393.876 1.5 393.832 1.5 393.788C1.5 393.744 1.5 393.699 1.5 393.655C1.5 393.61 1.5 393.566 1.5 393.521C1.5 393.476 1.5 393.431 1.5 393.386C1.5 393.341 1.5 393.296 1.5 393.25C1.5 393.205 1.5 393.16 1.5 393.114C1.5 393.068 1.5 393.022 1.5 392.976C1.5 392.93 1.5 392.884 1.5 392.838C1.5 392.792 1.5 392.745 1.5 392.699C1.5 392.652 1.5 392.606 1.5 392.559C1.5 392.512 1.5 392.465 1.5 392.418C1.5 392.371 1.5 392.323 1.5 392.276C1.5 392.228 1.5 392.181 1.5 392.133C1.5 392.086 1.5 392.038 1.5 391.99C1.5 391.942 1.5 391.894 1.5 391.845C1.5 391.797 1.5 391.749 1.5 391.7C1.5 391.652 1.5 391.603 1.5 391.554C1.5 391.505 1.5 391.456 1.5 391.407C1.5 391.358 1.5 391.309 1.5 391.26C1.5 391.21 1.5 391.161 1.5 391.111C1.5 391.062 1.5 391.012 1.5 390.962C1.5 390.912 1.5 390.862 1.5 390.812C1.5 390.762 1.5 390.712 1.5 390.662C1.5 390.611 1.5 390.561 1.5 390.51C1.5 390.46 1.5 390.409 1.5 390.358C1.5 390.307 1.5 390.256 1.5 390.205C1.5 390.154 1.5 390.103 1.5 390.051C1.5 390 1.5 389.948 1.5 389.897C1.5 389.845 1.5 389.794 1.5 389.742C1.5 389.69 1.5 389.638 1.5 389.586C1.5 389.534 1.5 389.482 1.5 389.429C1.5 389.377 1.5 389.325 1.5 389.272C1.5 389.22 1.5 389.167 1.5 389.114C1.5 389.061 1.5 389.009 1.5 388.956C1.5 388.903 1.5 388.85 1.5 388.796C1.5 388.743 1.5 388.69 1.5 388.636C1.5 388.583 1.5 388.53 1.5 388.476C1.5 388.422 1.5 388.369 1.5 388.315C1.5 388.261 1.5 388.207 1.5 388.153C1.5 388.099 1.5 388.045 1.5 387.99C1.5 387.936 1.5 387.882 1.5 387.827C1.5 387.773 1.5 387.718 1.5 387.664C1.5 387.609 1.5 387.554 1.5 387.499C1.5 387.444 1.5 387.389 1.5 387.334C1.5 387.279 1.5 387.224 1.5 387.169C1.5 387.114 1.5 387.058 1.5 387.003C1.5 386.947 1.5 386.892 1.5 386.836C1.5 386.78 1.5 386.725 1.5 386.669C1.5 386.613 1.5 386.557 1.5 386.501C1.5 386.445 1.5 386.389 1.5 386.333C1.5 386.277 1.5 386.22 1.5 386.164C1.5 386.108 1.5 386.051 1.5 385.995C1.5 385.938 1.5 385.881 1.5 385.825C1.5 385.768 1.5 385.711 1.5 385.654C1.5 385.597 1.5 385.54 1.5 385.483C1.5 385.426 1.5 385.369 1.5 385.312C1.5 385.255 1.5 385.197 1.5 385.14C1.5 385.083 1.5 385.025 1.5 384.968C1.5 384.91 1.5 384.852 1.5 384.795C1.5 384.737 1.5 384.679 1.5 384.621C1.5 384.564 1.5 384.506 1.5 384.448C1.5 384.39 1.5 384.331 1.5 384.273C1.5 384.215 1.5 384.157 1.5 384.099C1.5 384.04 1.5 383.982 1.5 383.924C1.5 383.865 1.5 383.807 1.5 383.748C1.5 383.689 1.5 383.631 1.5 383.572C1.5 383.513 1.5 383.454 1.5 383.396C1.5 383.337 1.5 383.278 1.5 383.219C1.5 383.16 1.5 383.101 1.5 383.042C1.5 382.983 1.5 382.923 1.5 382.864C1.5 382.805 1.5 382.746 1.5 382.686C1.5 382.627 1.5 382.567 1.5 382.508C1.5 382.448 1.5 382.389 1.5 382.329C1.5 382.27 1.5 382.21 1.5 382.15C1.5 382.091 1.5 382.031 1.5 381.971C1.5 381.911 1.5 381.851 1.5 381.791C1.5 381.731 1.5 381.671 1.5 381.611C1.5 381.551 1.5 381.491 1.5 381.431C1.5 381.371 1.5 381.311 1.5 381.25C1.5 381.19 1.5 381.13 1.5 381.069C1.5 381.009 1.5 380.949 1.5 380.888C1.5 380.828 1.5 380.767 1.5 380.707C1.5 380.646 1.5 380.585 1.5 380.525C1.5 380.464 1.5 380.403 1.5 380.343C1.5 380.282 1.5 380.221 1.5 380.16C1.5 380.1 1.5 380.039 1.5 379.978C1.5 379.917 1.5 379.856 1.5 379.795C1.5 379.734 1.5 379.673 1.5 379.612C1.5 379.551 1.5 379.49 1.5 379.429C1.5 379.367 1.5 379.306 1.5 379.245C1.5 379.184 1.5 379.123 1.5 379.061C1.5 379 1.5 378.939 1.5 378.877C1.5 378.816 1.5 378.755 1.5 378.693C1.5 378.632 1.5 378.57 1.5 378.509C1.5 378.447 1.5 378.386 1.5 378.324C1.5 378.263 1.5 378.201 1.5 378.14C1.5 378.078 1.5 378.016 1.5 377.955C1.5 377.893 1.5 377.831 1.5 377.77C1.5 377.708 1.5 377.646 1.5 377.585C1.5 377.523 1.5 377.461 1.5 377.399C1.5 377.337 1.5 377.276 1.5 377.214C1.5 377.152 1.5 377.09 1.5 377.028C1.5 376.966 1.5 376.904 1.5 376.843C1.5 376.781 1.5 376.719 1.5 376.657C1.5 376.595 1.5 376.533 1.5 376.471C1.5 376.409 1.5 376.347 1.5 376.285C1.5 376.223 1.5 376.161 1.5 376.099C1.5 376.037 1.5 375.975 1.5 375.913C1.5 375.851 1.5 375.789 1.5 375.726C1.5 375.664 1.5 375.602 1.5 375.54C1.5 375.478 1.5 375.416 1.5 375.354C1.5 375.292 1.5 375.23 1.5 375.167C1.5 375.105 1.5 375.043 1.5 374.981C1.5 374.919 1.5 374.857 1.5 374.795C1.5 374.732 1.5 374.67 1.5 374.608C1.5 374.546 1.5 374.484 1.5 374.422C1.5 374.36 1.5 374.297 1.5 374.235C1.5 374.173 1.5 374.111 1.5 374.049C1.5 373.987 1.5 373.924 1.5 373.862C1.5 373.8 1.5 373.738 1.5 373.676C1.5 373.614 1.5 373.552 1.5 373.49C1.5 373.427 1.5 373.365 1.5 373.303C1.5 373.241 1.5 373.179 1.5 373.117C1.5 373.055 1.5 372.993 1.5 372.931C1.5 372.868 1.5 372.806 1.5 372.744C1.5 372.682 1.5 372.62 1.5 372.558C1.5 372.496 1.5 372.434 1.5 372.372C1.5 372.31 1.5 372.248 1.5 372.186C1.5 372.124 1.5 372.062 1.5 372C1.5 371.938 1.5 371.876 1.5 371.815C1.5 371.753 1.5 371.691 1.5 371.629C1.5 371.567 1.5 371.505 1.5 371.443C1.5 371.382 1.5 371.32 1.5 371.258C1.5 371.196 1.5 371.134 1.5 371.073C1.5 371.011 1.5 370.949 1.5 370.888C1.5 370.826 1.5 370.764 1.5 370.703C1.5 370.641 1.5 370.579 1.5 370.518C1.5 370.456 1.5 370.395 1.5 370.333C1.5 370.272 1.5 370.21 1.5 370.149C1.5 370.087 1.5 370.026 1.5 369.964C1.5 369.903 1.5 369.842 1.5 369.78C1.5 369.719 1.5 369.658 1.5 369.596C1.5 369.535 1.5 369.474 1.5 369.413C1.5 369.351 1.5 369.29 1.5 369.229C1.5 369.168 1.5 369.107 1.5 369.046C1.5 368.985 1.5 368.924 1.5 368.863C1.5 368.802 1.5 368.741 1.5 368.68C1.5 368.619 1.5 368.558 1.5 368.497C1.5 368.437 1.5 368.376 1.5 368.315C1.5 368.254 1.5 368.194 1.5 368.133C1.5 368.073 1.5 368.012 1.5 367.951C1.5 367.891 1.5 367.83 1.5 367.77C1.5 367.71 1.5 367.649 1.5 367.589C1.5 367.528 1.5 367.468 1.5 367.408C1.5 367.348 1.5 367.287 1.5 367.227C1.5 367.167 1.5 367.107 1.5 367.047C1.5 366.987 1.5 366.927 1.5 366.867C1.5 366.807 1.5 366.747 1.5 366.688C1.5 366.628 1.5 366.568 1.5 366.508C1.5 366.449 1.5 366.389 1.5 366.329C1.5 366.27 1.5 366.21 1.5 366.151C1.5 366.091 1.5 366.032 1.5 365.973C1.5 365.913 1.5 365.854 1.5 365.795C1.5 365.735 1.5 365.676 1.5 365.617C1.5 365.558 1.5 365.499 1.5 365.44C1.5 365.381 1.5 365.322 1.5 365.263C1.5 365.205 1.5 365.146 1.5 365.087C1.5 365.028 1.5 364.97 1.5 364.911C1.5 364.853 1.5 364.794 1.5 364.736C1.5 364.677 1.5 364.619 1.5 364.561C1.5 364.503 1.5 364.444 1.5 364.386C1.5 364.328 1.5 364.27 1.5 364.212C1.5 364.154 1.5 364.096 1.5 364.038C1.5 363.981 1.5 363.923 1.5 363.865C1.5 363.807 1.5 363.75 1.5 363.692C1.5 363.635 1.5 363.577 1.5 363.52C1.5 363.463 1.5 363.405 1.5 363.348C1.5 363.291 1.5 363.234 1.5 363.177C1.5 363.12 1.5 363.063 1.5 363.006C1.5 362.949 1.5 362.893 1.5 362.836C1.5 362.779 1.5 362.723 1.5 362.666C1.5 362.61 1.5 362.553 1.5 362.497C1.5 362.44 1.5 362.384 1.5 362.328C1.5 362.272 1.5 362.216 1.5 362.16C1.5 362.104 1.5 362.048 1.5 361.992C1.5 361.936 1.5 361.881 1.5 361.825C1.5 361.77 1.5 361.714 1.5 361.659C1.5 361.603 1.5 361.548 1.5 361.493C1.5 361.437 1.5 361.382 1.5 361.327C1.5 361.272 1.5 361.217 1.5 361.162C1.5 361.108 1.5 361.053 1.5 360.998C1.5 360.944 1.5 360.889 1.5 360.835C1.5 360.78 1.5 360.726 1.5 360.672C1.5 360.618 1.5 360.563 1.5 360.509C1.5 360.455 1.5 360.401 1.5 360.348C1.5 360.294 1.5 360.24 1.5 360.187C1.5 360.133 1.5 360.08 1.5 360.026C1.5 359.973 1.5 359.92 1.5 359.866C1.5 359.813 1.5 359.76 1.5 359.707C1.5 359.654 1.5 359.602 1.5 359.549C1.5 359.496 1.5 359.444 1.5 359.391C1.5 359.339 1.5 359.286 1.5 359.234C1.5 359.182 1.5 359.13 1.5 359.078C1.5 359.026 1.5 358.974 1.5 358.922C1.5 358.87 1.5 358.818 1.5 358.767C1.5 358.715 1.5 358.664 1.5 358.613C1.5 358.561 1.5 358.51 1.5 358.459C1.5 358.408 1.5 358.357 1.5 358.306C1.5 358.256 1.5 358.205 1.5 358.154C1.5 358.104 1.5 358.053 1.5 358.003C1.5 357.953 1.5 357.903 1.5 357.852C1.5 357.802 1.5 357.753 1.5 357.703C1.5 357.653 1.5 357.603 1.5 357.554C1.5 357.504 1.5 357.455 1.5 357.406C1.5 357.356 1.5 357.307 1.5 357.258C1.5 357.209 1.5 357.16 1.5 357.111C1.5 357.063 1.5 357.014 1.5 356.966C1.5 356.917 1.5 356.869 1.5 356.821C1.5 356.772 1.5 356.724 1.5 356.677C1.5 356.629 1.5 356.581 1.5 356.533C1.5 356.486 1.5 356.438 1.5 356.391C1.5 356.343 1.5 356.296 1.5 356.249C1.5 356.202 1.5 356.155 1.5 356.108C1.5 356.061 1.5 356.015 1.5 355.968C1.5 355.922 1.5 355.875 1.5 355.829C1.5 355.783 1.5 355.737 1.5 355.691C1.5 355.645 1.5 355.599 1.5 355.554C1.5 355.508 1.5 355.463 1.5 355.417C1.5 355.372 1.5 355.327 1.5 355.282C1.5 355.237 1.5 355.192 1.5 355.147C1.5 355.103 1.5 355.058 1.5 355.014C1.5 354.969 1.5 354.925 1.5 354.881C1.5 354.837 1.5 354.793 1.5 354.749C1.5 354.705 1.5 354.662 1.5 354.618C1.5 354.575 1.5 354.532 1.5 354.489C1.5 354.445 1.5 354.402 1.5 354.36C1.5 354.317 1.5 354.274 1.5 354.232C1.5 354.189 1.5 354.147 1.5 354.105C1.5 354.063 1.5 354.021 1.5 353.979C1.5 353.937 1.5 353.895 1.5 353.854C1.5 353.812 1.5 353.771 1.5 353.73C1.5 353.689 1.5 353.648 1.5 353.607C1.5 353.566 1.5 353.525 1.5 353.485C1.5 353.444 1.5 353.404 1.5 353.364C1.5 353.324 1.5 353.284 1.5 353.244C1.5 353.204 1.5 353.165 1.5 353.125C1.5 353.086 1.5 353.047 1.5 353.007C1.5 352.968 1.5 352.929 1.5 352.891C1.5 352.852 1.5 352.813 1.5 352.775C1.5 352.737 1.5 352.698 1.5 352.66C1.5 352.622 1.5 352.585 1.5 352.547C1.5 352.509 1.5 352.472 1.5 352.435C1.5 352.397 1.5 352.36 1.5 352.323C1.5 352.286 1.5 352.25 1.5 352.213C1.5 352.176 1.5 352.14 1.5 352.104C1.5 352.068 1.5 352.032 1.5 351.996C1.5 351.96 1.5 351.925 1.5 351.889C1.5 351.854 1.5 351.818 1.5 351.783C1.5 351.748 1.5 351.714 1.5 351.679C1.5 351.644 1.5 351.61 1.5 351.576C1.5 351.541 1.5 351.507 1.5 351.473C1.5 351.439 1.5 351.406 1.5 351.372C1.5 351.339 1.5 351.305 1.5 351.272C1.5 351.239 1.5 351.206 1.5 351.174C1.5 351.141 1.5 351.109 1.5 351.076C1.5 351.044 1.5 351.012 1.5 350.98C1.5 350.948 1.5 350.916 1.5 350.885C1.5 350.853 1.5 350.822 1.5 350.791C1.5 350.76 1.5 350.729 1.5 350.698C1.5 350.668 1.5 350.637 1.5 350.607C1.5 350.577 1.5 350.547 1.5 350.517C1.5 350.487 1.5 350.458 1.5 350.428C1.5 350.399 1.5 350.37 1.5 350.341C1.5 350.312 1.5 350.283 1.5 350.254C1.5 350.226 1.5 350.197 1.5 350.169C1.5 350.141 1.5 350.113 1.5 350.085C1.5 350.058 1.5 350.03 1.5 350.003C1.5 349.976 1.5 349.949 1.5 349.922C1.5 349.895 1.5 349.868 1.5 349.842C1.5 349.816 1.5 349.789 1.5 349.763C1.5 349.737 1.5 349.712 1.5 349.686C1.5 349.661 1.5 349.635 1.5 349.61C1.5 349.585 1.5 349.56 1.5 349.536C1.5 349.511 1.5 349.487 1.5 349.463C1.5 349.438 1.5 349.414 1.5 349.391C1.5 349.367 1.5 349.344 1.5 349.32C1.5 349.297 1.5 349.274 1.5 349.251C1.5 349.228 1.5 349.206 1.5 349.184C1.5 349.161 1.5 349.139 1.5 349.117C1.5 349.095 1.5 349.074 1.5 349.052C1.5 349.031 1.5 349.01 1.5 348.989C1.5 348.968 1.5 348.947 1.5 348.927C1.5 348.906 1.5 348.886 1.5 348.866C1.5 348.846 1.5 348.826 1.5 348.807C1.5 348.787 1.5 348.768 1.5 348.749C1.5 348.73 1.5 348.711 1.5 348.693C1.5 348.674 1.5 348.656 1.5 348.638C1.5 348.62 1.5 348.602 1.5 348.585C1.5 348.567 1.5 348.55 1.5 348.533C1.5 348.516 1.5 348.499 1.5 348.482C1.5 348.466 1.5 348.449 1.5 348.433C1.5 348.417 1.5 348.401 1.5 348.386C1.5 348.37 1.5 348.355 1.5 348.34C1.5 348.325 1.5 348.31 1.5 348.295C1.5 348.281 1.5 348.267 1.5 348.252C1.5 348.238 1.5 348.225 1.5 348.211C1.5 348.198 1.5 348.184 1.5 348.171C1.5 348.158 1.5 348.145 1.5 348.133C1.5 348.12 1.5 348.108 1.5 348.096C1.5 348.084 1.5 348.072 1.5 348.061C1.5 348.05 1.5 348.038 1.5 348.027C1.5 348.016 1.5 348.006 1.5 347.995C1.5 347.985 1.5 347.975 1.5 347.965C1.5 347.955 1.5 347.945 1.5 347.936C1.5 347.927 1.5 347.918 1.5 347.909C1.5 347.9 1.5 347.891 1.5 347.883C1.5 347.875 1.5 347.867 1.5 347.859C1.5 347.851 1.5 347.844 1.5 347.837C1.5 347.83 1.5 347.823 1.5 347.816C1.5 347.809 1.5 347.803 1.5 347.797C1.5 347.791 1.5 347.785 1.5 347.779C1.5 347.774 1.5 347.769 1.5 347.764C1.5 347.759 1.5 347.754 1.5 347.75C1.5 347.745 1.5 347.741 1.5 347.737C1.5 347.733 1.5 347.73 1.5 347.726C1.5 347.723 1.5 347.72 1.5 347.717C1.5 347.715 1.5 347.712 1.5 347.71C1.5 347.708 1.5 347.706 1.5 347.704C1.5 347.703 1.5 347.701 1.5 347.7C1.5 347.699 1.5 347.698 1.5 347.698C1.5 347.698 1 347.697 0.5 347.698C0.5 347.698 0.5 347.698 0.5 347.699C0.5 347.699 0.5 347.701 0.5 347.702C0.5 347.703 0.5 347.705 0.5 347.707C0.5 347.708 0.5 347.711 0.5 347.713C0.5 347.716 0.5 347.718 0.5 347.721C0.5 347.724 0.5 347.728 0.5 347.731C0.5 347.735 0.5 347.739 0.5 347.743C0.5 347.748 0.5 347.752 0.5 347.757C0.5 347.762 0.5 347.767 0.5 347.772C0.5 347.778 0.5 347.784 0.5 347.79C0.5 347.796 0.5 347.802 0.5 347.809C0.5 347.816 0.5 347.823 0.5 347.83C0.5 347.837 0.5 347.845 0.5 347.853C0.5 347.86 0.5 347.869 0.5 347.877C0.5 347.886 0.5 347.895 0.5 347.904C0.5 347.913 0.5 347.922 0.5 347.932C0.5 347.942 0.5 347.952 0.5 347.962C0.5 347.973 0.5 347.983 0.5 347.994C0.5 348.005 0.5 348.017 0.5 348.028C0.5 348.04 0.5 348.052 0.5 348.064C0.5 348.076 0.5 348.089 0.5 348.102C0.5 348.115 0.5 348.128 0.5 348.142C0.5 348.155 0.5 348.169 0.5 348.183C0.5 348.197 0.5 348.212 0.5 348.227C0.5 348.242 0.5 348.257 0.5 348.272C0.5 348.288 0.5 348.304 0.5 348.32C0.5 348.336 0.5 348.352 0.5 348.369C0.5 348.386 0.5 348.403 0.5 348.42C0.5 348.438 0.5 348.456 0.5 348.474C0.5 348.492 0.5 348.51 0.5 348.529C0.5 348.548 0.5 348.567 0.5 348.586C0.5 348.606 0.5 348.625 0.5 348.646C0.5 348.666 0.5 348.686 0.5 348.707C0.5 348.728 0.5 348.749 0.5 348.77C0.5 348.791 0.5 348.813 0.5 348.835C0.5 348.857 0.5 348.88 0.5 348.903C0.5 348.925 0.5 348.949 0.5 348.972C0.5 348.995 0.5 349.019 0.5 349.043C0.5 349.067 0.5 349.092 0.5 349.117C0.5 349.142 0.5 349.167 0.5 349.192C0.5 349.218 0.5 349.244 0.5 349.27C0.5 349.296 0.5 349.323 0.5 349.349C0.5 349.376 0.5 349.404 0.5 349.431C0.5 349.459 0.5 349.487 0.5 349.515C0.5 349.543 0.5 349.572 0.5 349.601C0.5 349.63 0.5 349.659 0.5 349.689C0.5 349.719 0.5 349.749 0.5 349.779C0.5 349.809 0.5 349.84 0.5 349.871C0.5 349.902 0.5 349.934 0.5 349.966C0.5 349.997 0.5 350.03 0.5 350.062C0.5 350.095 0.5 350.128 0.5 350.161C0.5 350.194 0.5 350.228 0.5 350.262C0.5 350.296 0.5 350.33 0.5 350.365C0.5 350.399 0.5 350.434 0.5 350.47C0.5 350.505 0.5 350.541 0.5 350.577C0.5 350.613 0.5 350.65 0.5 350.687C0.5 350.723 0.5 350.761 0.5 350.798C0.5 350.836 0.5 350.874 0.5 350.912C0.5 350.951 0.5 350.989 0.5 351.028C0.5 351.067 0.5 351.107 0.5 351.147C0.5 351.186 0.5 351.227 0.5 351.267C0.5 351.308 0.5 351.349 0.5 351.39C0.5 351.431 0.5 351.473 0.5 351.515C0.5 351.557 0.5 351.6 0.5 351.642C0.5 351.685 0.5 351.728 0.5 351.772C0.5 351.816 0.5 351.859 0.5 351.904C0.5 351.948 0.5 351.993 0.5 352.038C0.5 352.083 0.5 352.128 0.5 352.174C0.5 352.22 0.5 352.266 0.5 352.313C0.5 352.36 0.5 352.407 0.5 352.454C0.5 352.501 0.5 352.549 0.5 352.597C0.5 352.645 0.5 352.694 0.5 352.743C0.5 352.792 0.5 352.841 0.5 352.891C0.5 352.941 0.5 352.991 0.5 353.041C0.5 353.092 0.5 353.142 0.5 353.194C0.5 353.245 0.5 353.297 0.5 353.349C0.5 353.401 0.5 353.453 0.5 353.506C0.5 353.559 0.5 353.612 0.5 353.666C0.5 353.719 0.5 353.773 0.5 353.828C0.5 353.882 0.5 353.937 0.5 353.992C0.5 354.047 0.5 354.103 0.5 354.159C0.5 354.215 0.5 354.272 0.5 354.328C0.5 354.385 0.5 354.442 0.5 354.5H1.5C1.5 354.442 1.5 354.385 1.5 354.328C1.5 354.272 1.5 354.215 1.5 354.159C1.5 354.103 1.5 354.047 1.5 353.992C1.5 353.937 1.5 353.882 1.5 353.828C1.5 353.773 1.5 353.719 1.5 353.666C1.5 353.612 1.5 353.559 1.5 353.506C1.5 353.453 1.5 353.401 1.5 353.349C1.5 353.297 1.5 353.245 1.5 353.194C1.5 353.142 1.5 353.092 1.5 353.041C1.5 352.991 1.5 352.941 1.5 352.891C1.5 352.841 1.5 352.792 1.5 352.743C1.5 352.694 1.5 352.645 1.5 352.597C1.5 352.549 1.5 352.501 1.5 352.454C1.5 352.407 1.5 352.36 1.5 352.313C1.5 352.266 1.5 352.22 1.5 352.174C1.5 352.128 1.5 352.083 1.5 352.038C1.5 351.993 1.5 351.948 1.5 351.904C1.5 351.859 1.5 351.816 1.5 351.772C1.5 351.728 1.5 351.685 1.5 351.642C1.5 351.6 1.5 351.557 1.5 351.515C1.5 351.473 1.5 351.431 1.5 351.39C1.5 351.349 1.5 351.308 1.5 351.267C1.5 351.227 1.5 351.186 1.5 351.147C1.5 351.107 1.5 351.067 1.5 351.028C1.5 350.989 1.5 350.951 1.5 350.912C1.5 350.874 1.5 350.836 1.5 350.798C1.5 350.761 1.5 350.723 1.5 350.687C1.5 350.65 1.5 350.613 1.5 350.577C1.5 350.541 1.5 350.505 1.5 350.47C1.5 350.434 1.5 350.399 1.5 350.365C1.5 350.33 1.5 350.296 1.5 350.262C1.5 350.228 1.5 350.194 1.5 350.161C1.5 350.128 1.5 350.095 1.5 350.062C1.5 350.03 1.5 349.997 1.5 349.966C1.5 349.934 1.5 349.902 1.5 349.871C1.5 349.84 1.5 349.809 1.5 349.779C1.5 349.749 1.5 349.719 1.5 349.689C1.5 349.659 1.5 349.63 1.5 349.601C1.5 349.572 1.5 349.543 1.5 349.515C1.5 349.487 1.5 349.459 1.5 349.431C1.5 349.404 1.5 349.376 1.5 349.349C1.5 349.323 1.5 349.296 1.5 349.27C1.5 349.244 1.5 349.218 1.5 349.192C1.5 349.167 1.5 349.142 1.5 349.117C1.5 349.092 1.5 349.067 1.5 349.043C1.5 349.019 1.5 348.995 1.5 348.972C1.5 348.949 1.5 348.925 1.5 348.903C1.5 348.88 1.5 348.857 1.5 348.835C1.5 348.813 1.5 348.791 1.5 348.77C1.5 348.749 1.5 348.728 1.5 348.707C1.5 348.686 1.5 348.666 1.5 348.646C1.5 348.625 1.5 348.606 1.5 348.586C1.5 348.567 1.5 348.548 1.5 348.529C1.5 348.51 1.5 348.492 1.5 348.474C1.5 348.456 1.5 348.438 1.5 348.42C1.5 348.403 1.5 348.386 1.5 348.369C1.5 348.352 1.5 348.336 1.5 348.32C1.5 348.304 1.5 348.288 1.5 348.272C1.5 348.257 1.5 348.242 1.5 348.227C1.5 348.212 1.5 348.197 1.5 348.183C1.5 348.169 1.5 348.155 1.5 348.142C1.5 348.128 1.5 348.115 1.5 348.102C1.5 348.089 1.5 348.076 1.5 348.064C1.5 348.052 1.5 348.04 1.5 348.028C1.5 348.017 1.5 348.005 1.5 347.994C1.5 347.983 1.5 347.973 1.5 347.962C1.5 347.952 1.5 347.942 1.5 347.932C1.5 347.922 1.5 347.913 1.5 347.904C1.5 347.895 1.5 347.886 1.5 347.877C1.5 347.869 1.5 347.86 1.5 347.853C1.5 347.845 1.5 347.837 1.5 347.83C1.5 347.823 1.5 347.816 1.5 347.809C1.5 347.802 1.5 347.796 1.5 347.79C1.5 347.784 1.5 347.778 1.5 347.772C1.5 347.767 1.5 347.762 1.5 347.757C1.5 347.752 1.5 347.748 1.5 347.743C1.5 347.739 1.5 347.735 1.5 347.731C1.5 347.728 1.5 347.724 1.5 347.721C1.5 347.718 1.5 347.716 1.5 347.713C1.5 347.711 1.5 347.708 1.5 347.707C1.5 347.705 1.5 347.703 1.5 347.702C1.5 347.701 1.5 347.699 1.5 347.699C1.5 347.698 1.5 347.698 1.5 347.698C1 347.697 0.5 347.698 0.5 347.698C0.5 347.698 0.5 347.699 0.5 347.7C0.5 347.701 0.5 347.703 0.5 347.704C0.5 347.706 0.5 347.708 0.5 347.71C0.5 347.712 0.5 347.715 0.5 347.717C0.5 347.72 0.5 347.723 0.5 347.726C0.5 347.73 0.5 347.733 0.5 347.737C0.5 347.741 0.5 347.745 0.5 347.75C0.5 347.754 0.5 347.759 0.5 347.764C0.5 347.769 0.5 347.774 0.5 347.779C0.5 347.785 0.5 347.791 0.5 347.797C0.5 347.803 0.5 347.809 0.5 347.816C0.5 347.823 0.5 347.83 0.5 347.837C0.5 347.844 0.5 347.851 0.5 347.859C0.5 347.867 0.5 347.875 0.5 347.883C0.5 347.891 0.5 347.9 0.5 347.909C0.5 347.918 0.5 347.927 0.5 347.936C0.5 347.945 0.5 347.955 0.5 347.965C0.5 347.975 0.5 347.985 0.5 347.995C0.5 348.006 0.5 348.016 0.5 348.027C0.5 348.038 0.5 348.05 0.5 348.061C0.5 348.072 0.5 348.084 0.5 348.096C0.5 348.108 0.5 348.12 0.5 348.133C0.5 348.145 0.5 348.158 0.5 348.171C0.5 348.184 0.5 348.198 0.5 348.211C0.5 348.225 0.5 348.238 0.5 348.252C0.5 348.267 0.5 348.281 0.5 348.295C0.5 348.31 0.5 348.325 0.5 348.34C0.5 348.355 0.5 348.37 0.5 348.386C0.5 348.401 0.5 348.417 0.5 348.433C0.5 348.449 0.5 348.466 0.5 348.482C0.5 348.499 0.5 348.516 0.5 348.533C0.5 348.55 0.5 348.567 0.5 348.585C0.5 348.602 0.5 348.62 0.5 348.638C0.5 348.656 0.5 348.674 0.5 348.693C0.5 348.711 0.5 348.73 0.5 348.749C0.5 348.768 0.5 348.787 0.5 348.807C0.5 348.826 0.5 348.846 0.5 348.866C0.5 348.886 0.5 348.906 0.5 348.927C0.5 348.947 0.5 348.968 0.5 348.989C0.5 349.01 0.5 349.031 0.5 349.052C0.5 349.074 0.5 349.095 0.5 349.117C0.5 349.139 0.5 349.161 0.5 349.184C0.5 349.206 0.5 349.228 0.5 349.251C0.5 349.274 0.5 349.297 0.5 349.32C0.5 349.344 0.5 349.367 0.5 349.391C0.5 349.414 0.5 349.438 0.5 349.463C0.5 349.487 0.5 349.511 0.5 349.536C0.5 349.56 0.5 349.585 0.5 349.61C0.5 349.635 0.5 349.661 0.5 349.686C0.5 349.712 0.5 349.737 0.5 349.763C0.5 349.789 0.5 349.816 0.5 349.842C0.5 349.868 0.5 349.895 0.5 349.922C0.5 349.949 0.5 349.976 0.5 350.003C0.5 350.03 0.5 350.058 0.5 350.085C0.5 350.113 0.5 350.141 0.5 350.169C0.5 350.197 0.5 350.226 0.5 350.254C0.5 350.283 0.5 350.312 0.5 350.341C0.5 350.37 0.5 350.399 0.5 350.428C0.5 350.458 0.5 350.487 0.5 350.517C0.5 350.547 0.5 350.577 0.5 350.607C0.5 350.637 0.5 350.668 0.5 350.698C0.5 350.729 0.5 350.76 0.5 350.791C0.5 350.822 0.5 350.853 0.5 350.885C0.5 350.916 0.5 350.948 0.5 350.98C0.5 351.012 0.5 351.044 0.5 351.076C0.5 351.109 0.5 351.141 0.5 351.174C0.5 351.206 0.5 351.239 0.5 351.272C0.5 351.305 0.5 351.339 0.5 351.372C0.5 351.406 0.5 351.439 0.5 351.473C0.5 351.507 0.5 351.541 0.5 351.576C0.5 351.61 0.5 351.644 0.5 351.679C0.5 351.714 0.5 351.748 0.5 351.783C0.5 351.818 0.5 351.854 0.5 351.889C0.5 351.925 0.5 351.96 0.5 351.996C0.5 352.032 0.5 352.068 0.5 352.104C0.5 352.14 0.5 352.176 0.5 352.213C0.5 352.25 0.5 352.286 0.5 352.323C0.5 352.36 0.5 352.397 0.5 352.435C0.5 352.472 0.5 352.509 0.5 352.547C0.5 352.585 0.5 352.622 0.5 352.66C0.5 352.698 0.5 352.737 0.5 352.775C0.5 352.813 0.5 352.852 0.5 352.891C0.5 352.929 0.5 352.968 0.5 353.007C0.5 353.047 0.5 353.086 0.5 353.125C0.5 353.165 0.5 353.204 0.5 353.244C0.5 353.284 0.5 353.324 0.5 353.364C0.5 353.404 0.5 353.444 0.5 353.485C0.5 353.525 0.5 353.566 0.5 353.607C0.5 353.648 0.5 353.689 0.5 353.73C0.5 353.771 0.5 353.812 0.5 353.854C0.5 353.895 0.5 353.937 0.5 353.979C0.5 354.021 0.5 354.063 0.5 354.105C0.5 354.147 0.5 354.189 0.5 354.232C0.5 354.274 0.5 354.317 0.5 354.36C0.5 354.402 0.5 354.445 0.5 354.489C0.5 354.532 0.5 354.575 0.5 354.618C0.5 354.662 0.5 354.705 0.5 354.749C0.5 354.793 0.5 354.837 0.5 354.881C0.5 354.925 0.5 354.969 0.5 355.014C0.5 355.058 0.5 355.103 0.5 355.147C0.5 355.192 0.5 355.237 0.5 355.282C0.5 355.327 0.5 355.372 0.5 355.417C0.5 355.463 0.5 355.508 0.5 355.554C0.5 355.599 0.5 355.645 0.5 355.691C0.5 355.737 0.5 355.783 0.5 355.829C0.5 355.875 0.5 355.922 0.5 355.968C0.5 356.015 0.5 356.061 0.5 356.108C0.5 356.155 0.5 356.202 0.5 356.249C0.5 356.296 0.5 356.343 0.5 356.391C0.5 356.438 0.5 356.486 0.5 356.533C0.5 356.581 0.5 356.629 0.5 356.677C0.5 356.724 0.5 356.772 0.5 356.821C0.5 356.869 0.5 356.917 0.5 356.966C0.5 357.014 0.5 357.063 0.5 357.111C0.5 357.16 0.5 357.209 0.5 357.258C0.5 357.307 0.5 357.356 0.5 357.406C0.5 357.455 0.5 357.504 0.5 357.554C0.5 357.603 0.5 357.653 0.5 357.703C0.5 357.753 0.5 357.802 0.5 357.852C0.5 357.903 0.5 357.953 0.5 358.003C0.5 358.053 0.5 358.104 0.5 358.154C0.5 358.205 0.5 358.256 0.5 358.306C0.5 358.357 0.5 358.408 0.5 358.459C0.5 358.51 0.5 358.561 0.5 358.613C0.5 358.664 0.5 358.715 0.5 358.767C0.5 358.818 0.5 358.87 0.5 358.922C0.5 358.974 0.5 359.026 0.5 359.078C0.5 359.13 0.5 359.182 0.5 359.234C0.5 359.286 0.5 359.339 0.5 359.391C0.5 359.444 0.5 359.496 0.5 359.549C0.5 359.602 0.5 359.654 0.5 359.707C0.5 359.76 0.5 359.813 0.5 359.866C0.5 359.92 0.5 359.973 0.5 360.026C0.5 360.08 0.5 360.133 0.5 360.187C0.5 360.24 0.5 360.294 0.5 360.348C0.5 360.401 0.5 360.455 0.5 360.509C0.5 360.563 0.5 360.618 0.5 360.672C0.5 360.726 0.5 360.78 0.5 360.835C0.5 360.889 0.5 360.944 0.5 360.998C0.5 361.053 0.5 361.108 0.5 361.162C0.5 361.217 0.5 361.272 0.5 361.327C0.5 361.382 0.5 361.437 0.5 361.493C0.5 361.548 0.5 361.603 0.5 361.659C0.5 361.714 0.5 361.77 0.5 361.825C0.5 361.881 0.5 361.936 0.5 361.992C0.5 362.048 0.5 362.104 0.5 362.16C0.5 362.216 0.5 362.272 0.5 362.328C0.5 362.384 0.5 362.44 0.5 362.497C0.5 362.553 0.5 362.61 0.5 362.666C0.5 362.723 0.5 362.779 0.5 362.836C0.5 362.893 0.5 362.949 0.5 363.006C0.5 363.063 0.5 363.12 0.5 363.177C0.5 363.234 0.5 363.291 0.5 363.348C0.5 363.405 0.5 363.463 0.5 363.52C0.5 363.577 0.5 363.635 0.5 363.692C0.5 363.75 0.5 363.807 0.5 363.865C0.5 363.923 0.5 363.981 0.5 364.038C0.5 364.096 0.5 364.154 0.5 364.212C0.5 364.27 0.5 364.328 0.5 364.386C0.5 364.444 0.5 364.503 0.5 364.561C0.5 364.619 0.5 364.677 0.5 364.736C0.5 364.794 0.5 364.853 0.5 364.911C0.5 364.97 0.5 365.028 0.5 365.087C0.5 365.146 0.5 365.205 0.5 365.263C0.5 365.322 0.5 365.381 0.5 365.44C0.5 365.499 0.5 365.558 0.5 365.617C0.5 365.676 0.5 365.735 0.5 365.795C0.5 365.854 0.5 365.913 0.5 365.973C0.5 366.032 0.5 366.091 0.5 366.151C0.5 366.21 0.5 366.27 0.5 366.329C0.5 366.389 0.5 366.449 0.5 366.508C0.5 366.568 0.5 366.628 0.5 366.688C0.5 366.747 0.5 366.807 0.5 366.867C0.5 366.927 0.5 366.987 0.5 367.047C0.5 367.107 0.5 367.167 0.5 367.227C0.5 367.287 0.5 367.348 0.5 367.408C0.5 367.468 0.5 367.528 0.5 367.589C0.5 367.649 0.5 367.71 0.5 367.77C0.5 367.83 0.5 367.891 0.5 367.951C0.5 368.012 0.5 368.073 0.5 368.133C0.5 368.194 0.5 368.254 0.5 368.315C0.5 368.376 0.5 368.437 0.5 368.497C0.5 368.558 0.5 368.619 0.5 368.68C0.5 368.741 0.5 368.802 0.5 368.863C0.5 368.924 0.5 368.985 0.5 369.046C0.5 369.107 0.5 369.168 0.5 369.229C0.5 369.29 0.5 369.351 0.5 369.413C0.5 369.474 0.5 369.535 0.5 369.596C0.5 369.658 0.5 369.719 0.5 369.78C0.5 369.842 0.5 369.903 0.5 369.964C0.5 370.026 0.5 370.087 0.5 370.149C0.5 370.21 0.5 370.272 0.5 370.333C0.5 370.395 0.5 370.456 0.5 370.518C0.5 370.579 0.5 370.641 0.5 370.703C0.5 370.764 0.5 370.826 0.5 370.888C0.5 370.949 0.5 371.011 0.5 371.073C0.5 371.134 0.5 371.196 0.5 371.258C0.5 371.32 0.5 371.382 0.5 371.443C0.5 371.505 0.5 371.567 0.5 371.629C0.5 371.691 0.5 371.753 0.5 371.815C0.5 371.876 0.5 371.938 0.5 372C0.5 372.062 0.5 372.124 0.5 372.186C0.5 372.248 0.5 372.31 0.5 372.372C0.5 372.434 0.5 372.496 0.5 372.558C0.5 372.62 0.5 372.682 0.5 372.744C0.5 372.806 0.5 372.868 0.5 372.931C0.5 372.993 0.5 373.055 0.5 373.117C0.5 373.179 0.5 373.241 0.5 373.303C0.5 373.365 0.5 373.427 0.5 373.49C0.5 373.552 0.5 373.614 0.5 373.676C0.5 373.738 0.5 373.8 0.5 373.862C0.5 373.924 0.5 373.987 0.5 374.049C0.5 374.111 0.5 374.173 0.5 374.235C0.5 374.297 0.5 374.36 0.5 374.422C0.5 374.484 0.5 374.546 0.5 374.608C0.5 374.67 0.5 374.732 0.5 374.795C0.5 374.857 0.5 374.919 0.5 374.981C0.5 375.043 0.5 375.105 0.5 375.167C0.5 375.23 0.5 375.292 0.5 375.354C0.5 375.416 0.5 375.478 0.5 375.54C0.5 375.602 0.5 375.664 0.5 375.726C0.5 375.789 0.5 375.851 0.5 375.913C0.5 375.975 0.5 376.037 0.5 376.099C0.5 376.161 0.5 376.223 0.5 376.285C0.5 376.347 0.5 376.409 0.5 376.471C0.5 376.533 0.5 376.595 0.5 376.657C0.5 376.719 0.5 376.781 0.5 376.843C0.5 376.904 0.5 376.966 0.5 377.028C0.5 377.09 0.5 377.152 0.5 377.214C0.5 377.276 0.5 377.337 0.5 377.399C0.5 377.461 0.5 377.523 0.5 377.585C0.5 377.646 0.5 377.708 0.5 377.77C0.5 377.831 0.5 377.893 0.5 377.955C0.5 378.016 0.5 378.078 0.5 378.14C0.5 378.201 0.5 378.263 0.5 378.324C0.5 378.386 0.5 378.447 0.5 378.509C0.5 378.57 0.5 378.632 0.5 378.693C0.5 378.755 0.5 378.816 0.5 378.877C0.5 378.939 0.5 379 0.5 379.061C0.5 379.123 0.5 379.184 0.5 379.245C0.5 379.306 0.5 379.367 0.5 379.429C0.5 379.49 0.5 379.551 0.5 379.612C0.5 379.673 0.5 379.734 0.5 379.795C0.5 379.856 0.5 379.917 0.5 379.978C0.5 380.039 0.5 380.1 0.5 380.16C0.5 380.221 0.5 380.282 0.5 380.343C0.5 380.403 0.5 380.464 0.5 380.525C0.5 380.585 0.5 380.646 0.5 380.707C0.5 380.767 0.5 380.828 0.5 380.888C0.5 380.949 0.5 381.009 0.5 381.069C0.5 381.13 0.5 381.19 0.5 381.25C0.5 381.311 0.5 381.371 0.5 381.431C0.5 381.491 0.5 381.551 0.5 381.611C0.5 381.671 0.5 381.731 0.5 381.791C0.5 381.851 0.5 381.911 0.5 381.971C0.5 382.031 0.5 382.091 0.5 382.15C0.5 382.21 0.5 382.27 0.5 382.329C0.5 382.389 0.5 382.448 0.5 382.508C0.5 382.567 0.5 382.627 0.5 382.686C0.5 382.746 0.5 382.805 0.5 382.864C0.5 382.923 0.5 382.983 0.5 383.042C0.5 383.101 0.5 383.16 0.5 383.219C0.5 383.278 0.5 383.337 0.5 383.396C0.5 383.454 0.5 383.513 0.5 383.572C0.5 383.631 0.5 383.689 0.5 383.748C0.5 383.807 0.5 383.865 0.5 383.924C0.5 383.982 0.5 384.04 0.5 384.099C0.5 384.157 0.5 384.215 0.5 384.273C0.5 384.331 0.5 384.39 0.5 384.448C0.5 384.506 0.5 384.564 0.5 384.621C0.5 384.679 0.5 384.737 0.5 384.795C0.5 384.852 0.5 384.91 0.5 384.968C0.5 385.025 0.5 385.083 0.5 385.14C0.5 385.197 0.5 385.255 0.5 385.312C0.5 385.369 0.5 385.426 0.5 385.483C0.5 385.54 0.5 385.597 0.5 385.654C0.5 385.711 0.5 385.768 0.5 385.825C0.5 385.881 0.5 385.938 0.5 385.995C0.5 386.051 0.5 386.108 0.5 386.164C0.5 386.22 0.5 386.277 0.5 386.333C0.5 386.389 0.5 386.445 0.5 386.501C0.5 386.557 0.5 386.613 0.5 386.669C0.5 386.725 0.5 386.78 0.5 386.836C0.5 386.892 0.5 386.947 0.5 387.003C0.5 387.058 0.5 387.114 0.5 387.169C0.5 387.224 0.5 387.279 0.5 387.334C0.5 387.389 0.5 387.444 0.5 387.499C0.5 387.554 0.5 387.609 0.5 387.664C0.5 387.718 0.5 387.773 0.5 387.827C0.5 387.882 0.5 387.936 0.5 387.99C0.5 388.045 0.5 388.099 0.5 388.153C0.5 388.207 0.5 388.261 0.5 388.315C0.5 388.369 0.5 388.422 0.5 388.476C0.5 388.53 0.5 388.583 0.5 388.636C0.5 388.69 0.5 388.743 0.5 388.796C0.5 388.85 0.5 388.903 0.5 388.956C0.5 389.009 0.5 389.061 0.5 389.114C0.5 389.167 0.5 389.22 0.5 389.272C0.5 389.325 0.5 389.377 0.5 389.429C0.5 389.482 0.5 389.534 0.5 389.586C0.5 389.638 0.5 389.69 0.5 389.742C0.5 389.794 0.5 389.845 0.5 389.897C0.5 389.948 0.5 390 0.5 390.051C0.5 390.103 0.5 390.154 0.5 390.205C0.5 390.256 0.5 390.307 0.5 390.358C0.5 390.409 0.5 390.46 0.5 390.51C0.5 390.561 0.5 390.611 0.5 390.662C0.5 390.712 0.5 390.762 0.5 390.812C0.5 390.862 0.5 390.912 0.5 390.962C0.5 391.012 0.5 391.062 0.5 391.111C0.5 391.161 0.5 391.21 0.5 391.26C0.5 391.309 0.5 391.358 0.5 391.407C0.5 391.456 0.5 391.505 0.5 391.554C0.5 391.603 0.5 391.652 0.5 391.7C0.5 391.749 0.5 391.797 0.5 391.845C0.5 391.894 0.5 391.942 0.5 391.99C0.5 392.038 0.5 392.086 0.5 392.133C0.5 392.181 0.5 392.228 0.5 392.276C0.5 392.323 0.5 392.371 0.5 392.418C0.5 392.465 0.5 392.512 0.5 392.559C0.5 392.606 0.5 392.652 0.5 392.699C0.5 392.745 0.5 392.792 0.5 392.838C0.5 392.884 0.5 392.93 0.5 392.976C0.5 393.022 0.5 393.068 0.5 393.114C0.5 393.16 0.5 393.205 0.5 393.25C0.5 393.296 0.5 393.341 0.5 393.386C0.5 393.431 0.5 393.476 0.5 393.521C0.5 393.566 0.5 393.61 0.5 393.655C0.5 393.699 0.5 393.744 0.5 393.788C0.5 393.832 0.5 393.876 0.5 393.92C0.5 393.964 0.5 394.007 0.5 394.051C0.5 394.094 0.5 394.138 0.5 394.181C0.5 394.224 0.5 394.267 0.5 394.31C0.5 394.353 0.5 394.396 0.5 394.438C0.5 394.481 0.5 394.523 0.5 394.565C0.5 394.607 0.5 394.65 0.5 394.691C0.5 394.733 0.5 394.775 0.5 394.817C0.5 394.858 0.5 394.9 0.5 394.941C0.5 394.982 0.5 395.023 0.5 395.064C0.5 395.105 0.5 395.146 0.5 395.186C0.5 395.227 0.5 395.267 0.5 395.307C0.5 395.348 0.5 395.388 0.5 395.427C0.5 395.467 0.5 395.507 0.5 395.547C0.5 395.586 0.5 395.625 0.5 395.665C0.5 395.704 0.5 395.743 0.5 395.781C0.5 395.82 0.5 395.859 0.5 395.897C0.5 395.936 0.5 395.974 0.5 396.012C0.5 396.05 0.5 396.088 0.5 396.126C0.5 396.164 0.5 396.201 0.5 396.239C0.5 396.276 0.5 396.313 0.5 396.35C0.5 396.387 0.5 396.424 0.5 396.461C0.5 396.497 0.5 396.534 0.5 396.57C0.5 396.606 0.5 396.642 0.5 396.678C0.5 396.714 0.5 396.75 0.5 396.785C0.5 396.821 0.5 396.856 0.5 396.891C0.5 396.926 0.5 396.961 0.5 396.996C0.5 397.031 0.5 397.065 0.5 397.1C0.5 397.134 0.5 397.168 0.5 397.202C0.5 397.236 0.5 397.27 0.5 397.303C0.5 397.337 0.5 397.37 0.5 397.403C0.5 397.437 0.5 397.47 0.5 397.502C0.5 397.535 0.5 397.568 0.5 397.6C0.5 397.633 0.5 397.665 0.5 397.697C0.5 397.729 0.5 397.76 0.5 397.792C0.5 397.824 0.5 397.855 0.5 397.886C0.5 397.917 0.5 397.948 0.5 397.979C0.5 398.01 0.5 398.04 0.5 398.071C0.5 398.101 0.5 398.131 0.5 398.161C0.5 398.191 0.5 398.221 0.5 398.25C0.5 398.28 0.5 398.309 0.5 398.338C0.5 398.367 0.5 398.396 0.5 398.425C0.5 398.453 0.5 398.482 0.5 398.51C0.5 398.538 0.5 398.566 0.5 398.594C0.5 398.622 0.5 398.649 0.5 398.677C0.5 398.704 0.5 398.731 0.5 398.758C0.5 398.785 0.5 398.812 0.5 398.838C0.5 398.865 0.5 398.891 0.5 398.917C0.5 398.943 0.5 398.969 0.5 398.995C0.5 399.02 0.5 399.046 0.5 399.071C0.5 399.096 0.5 399.121 0.5 399.146C0.5 399.17 0.5 399.195 0.5 399.219C0.5 399.243 0.5 399.267 0.5 399.291C0.5 399.315 0.5 399.339 0.5 399.362C0.5 399.385 0.5 399.408 0.5 399.431C0.5 399.454 0.5 399.477 0.5 399.499C0.5 399.522 0.5 399.544 0.5 399.566C0.5 399.588 0.5 399.61 0.5 399.631C0.5 399.653 0.5 399.674 0.5 399.695C0.5 399.716 0.5 399.737 0.5 399.757C0.5 399.778 0.5 399.798 0.5 399.818C0.5 399.838 0.5 399.858 0.5 399.878C0.5 399.897 0.5 399.917 0.5 399.936C0.5 399.955 0.5 399.974 0.5 399.993C0.5 400.011 0.5 400.03 0.5 400.048C0.5 400.066 0.5 400.084 0.5 400.101C0.5 400.119 0.5 400.137 0.5 400.154C0.5 400.171 0.5 400.188 0.5 400.204C0.5 400.221 0.5 400.238 0.5 400.254C0.5 400.27 0.5 400.286 0.5 400.302C0.5 400.317 0.5 400.333 0.5 400.348C0.5 400.363 0.5 400.378 0.5 400.393C0.5 400.407 0.5 400.422 0.5 400.436C0.5 400.45 0.5 400.464 0.5 400.478C0.5 400.491 0.5 400.505 0.5 400.518C0.5 400.531 0.5 400.544 0.5 400.556C0.5 400.569 0.5 400.581 0.5 400.593C0.5 400.606 0.5 400.617 0.5 400.629C0.5 400.641 0.5 400.652 0.5 400.663C0.5 400.674 0.5 400.685 0.5 400.695C0.5 400.706 0.5 400.716 0.5 400.726C0.5 400.736 0.5 400.746 0.5 400.755C0.5 400.765 0.5 400.774 0.5 400.783C0.5 400.792 0.5 400.8 0.5 400.809C0.5 400.817 0.5 400.825 0.5 400.833C0.5 400.841 0.5 400.849 0.5 400.856C0.5 400.863 0.5 400.87 0.5 400.877C0.5 400.884 0.5 400.89 0.5 400.897C0.5 400.903 0.5 400.909 0.5 400.914C0.5 400.92 0.5 400.925 0.5 400.931C0.5 400.936 0.5 400.94 0.5 400.945C0.5 400.95 0.5 400.954 0.5 400.958C0.5 400.962 0.5 400.966 0.5 400.969C0.5 400.972 0.5 400.976 0.5 400.978C0.5 400.981 0.5 400.984 0.5 400.986C0.5 400.988 0.5 400.99 0.5 400.992C0.5 400.994 0.5 400.995 0.5 400.997C0.5 400.998 0.5 400.999 0.5 400.999C0.5 401 0.5 401 1 401ZM17.3202 331.204C40.4676 279.548 83.359 165.272 107.464 105.186L106.536 104.814C82.4113 164.949 39.5453 279.161 16.4076 330.796L17.3202 331.204ZM6.46627 359.181L17.3301 331.181L16.3978 330.819L5.53398 358.819L6.46627 359.181ZM5.50983 358.902C5.44688 359.217 5.34536 359.482 5.22516 359.651C5.11132 359.811 5.0271 359.83 4.96274 359.825C4.85716 359.818 4.61235 359.734 4.22068 359.314C3.83905 358.905 3.37228 358.236 2.81884 357.203L1.9374 357.676C2.51073 358.746 3.02496 359.499 3.48978 359.997C3.94458 360.484 4.41172 360.79 4.8948 360.823C5.41911 360.859 5.80028 360.567 6.03981 360.231C6.27297 359.903 6.4128 359.486 6.49041 359.098L5.50983 358.902ZM2.17929 356.981C2.03322 357.044 1.97936 357.023 1.97054 357.02C1.95575 357.014 1.88742 356.979 1.80252 356.803C1.62329 356.43 1.5 355.698 1.5 354.5H0.5C0.5 355.712 0.616344 356.644 0.901457 357.236C1.04873 357.542 1.26876 357.815 1.59663 357.947C1.93048 358.082 2.27359 358.03 2.57696 357.898L2.17929 356.981ZM0.5 354.5V401H1.5V354.5H0.5ZM2.57696 357.898C2.96076 357.732 3.35268 357.41 3.74801 356.995C4.15024 356.574 4.58742 356.022 5.05706 355.355C5.99662 354.021 7.09165 352.186 8.32459 349.909C10.7917 345.353 13.8345 338.983 17.3202 331.204L16.4076 330.796C12.9251 338.567 9.89435 344.91 7.44524 349.433C6.22008 351.696 5.14637 353.492 4.23939 354.78C3.78576 355.424 3.38022 355.932 3.02438 356.305C2.66164 356.686 2.38014 356.894 2.17929 356.981L2.57696 357.898ZM0.539184 354.694C1.04472 355.895 1.50991 356.878 1.9374 357.676L2.81884 357.203C2.40952 356.44 1.9575 355.486 1.46082 354.306L0.539184 354.694ZM639.5 601V1H638.5V601H639.5ZM639 0.5H1V1.5H639V0.5ZM0.5 1V354.5H1.5V1H0.5ZM0.5 401V601H1.5V401H0.5ZM1 601.5H639V600.5H1V601.5Z" fill="white"/>
</svg>
