<svg width="72" height="215" viewBox="0 0 72 215" fill="none" xmlns="http://www.w3.org/2000/svg">
<path d="M1 1H71V214H4.85593L1 3.48252V1Z" fill="white"/>
<path d="M1 1V0.5H0.5V1H1ZM71 1H71.5V0.5H71V1ZM71 214V214.5H71.5V214H71ZM4.85593 214L4.35602 214.009L4.36501 214.5H4.85593V214ZM1 3.48252H0.499916L0.500084 3.49167L1 3.48252ZM1 1.5H71V0.5H1V1.5ZM70.5 1V214H71.5V1H70.5ZM71 213.5H4.85593V214.5H71V213.5ZM5.35585 213.991L1.49992 3.47336L0.500084 3.49167L4.35602 214.009L5.35585 213.991ZM1.5 3.48252V1H0.5V3.48252H1.5Z" fill="white"/>
</svg>
