<svg width="338" height="367" viewBox="0 0 338 367" fill="none" xmlns="http://www.w3.org/2000/svg">
<path fill-rule="evenodd" clip-rule="evenodd" d="M182.47 1.75701C213.441 8.00554 231.382 39.0182 254.444 60.718C273.191 78.3574 293.07 94.1929 305.002 117.05C317.429 140.852 320.182 167.123 323.891 193.745C329.01 230.483 348.278 269.857 330.85 302.556C313.282 335.519 272.354 348.35 236.393 357.919C201.078 367.315 161.478 373.131 129.032 356.257C97.8785 340.055 92.2153 298.566 69.9232 271.342C48.4263 245.089 6.622 233.056 0.733444 199.572C-5.14614 166.139 25.7881 138.653 41.2831 108.486C55.9294 79.9706 63.6652 46.6622 89.1797 27.3748C115.477 7.49581 150.211 -4.75148 182.47 1.75701Z" fill="#C4C4C4" fill-opacity="0.5"/>
</svg>
