<svg width="60" height="46" viewBox="0 0 60 46" fill="none" xmlns="http://www.w3.org/2000/svg">
<path d="M52.5 8V0.5H0V41.75C0 42.7446 0.395088 43.6984 1.09835 44.4016C1.80161 45.1049 2.75544 45.5 3.75 45.5H54.375C55.8668 45.5 57.2976 44.9074 58.3525 43.8525C59.4074 42.7976 60 41.3668 60 39.875V8H52.5ZM48.75 41.75H3.75V4.25H48.75V41.75ZM7.5 11.75H45V15.5H7.5V11.75ZM30 19.25H45V23H30V19.25ZM30 26.75H45V30.5H30V26.75ZM30 34.25H41.25V38H30V34.25ZM7.5 19.25H26.25V38H7.5V19.25Z" fill="black"/>
</svg>
