<svg width="628" height="116" viewBox="0 0 628 116" fill="none" xmlns="http://www.w3.org/2000/svg">
<path d="M59 65.0006C55.7266 62.2861 52.9994 59.8875 51.8889 56.0006C51.5922 54.9622 49.0325 53.2995 51.2222 53.0562C54.7243 52.667 57.9837 53.2618 61.3889 52.0006C64.7712 50.7479 73.9789 49.6332 77.5555 51.2228C82.8388 53.571 90.6098 53.0006 96.5555 53.0006C106.204 53.0006 115.852 53.0006 125.5 53.0006C134.607 53.0006 142.826 51.0006 152 51.0006C163.659 51.0006 175.343 50.7764 187 51.0006C210.932 51.4608 235.015 52.6856 258.944 53.9451C287.8 55.4638 316.598 58.0006 345.5 58.0006C380.432 58.0006 415.114 60.0006 450 60.0006C492.762 60.0006 535.243 58.0006 578 58.0006" stroke="black" stroke-opacity="0.85" stroke-width="100" stroke-linecap="round"/>
</svg>
