<svg width="42" height="54" viewBox="0 0 42 54" fill="none" xmlns="http://www.w3.org/2000/svg">
<path d="M39.75 0.75H2.25C1.21289 0.75 0.375 1.58789 0.375 2.625V51.375C0.375 52.4121 1.21289 53.25 2.25 53.25H39.75C40.7871 53.25 41.625 52.4121 41.625 51.375V2.625C41.625 1.58789 40.7871 0.75 39.75 0.75ZM24.5156 4.96875H30.1406V17.2676L27.416 15.2812L24.5156 17.3555V4.96875ZM37.4062 49.0312H4.59375V4.96875H21V22.3652C21 22.5586 21.0586 22.752 21.1758 22.9102C21.2469 23.0107 21.3373 23.0962 21.4417 23.1616C21.546 23.227 21.6623 23.271 21.7839 23.2912C21.9054 23.3114 22.0297 23.3072 22.1496 23.279C22.2695 23.2508 22.3826 23.1992 22.4824 23.127L27.3926 19.6172L32.1621 23.0977C32.3203 23.2148 32.5137 23.2793 32.7129 23.2793C33.2285 23.2793 33.6504 22.8574 33.6504 22.3418V4.96875H37.4004V49.0312H37.4062Z" fill="black"/>
</svg>
