<svg width="320" height="444" viewBox="0 0 320 444" fill="none" xmlns="http://www.w3.org/2000/svg">
<path d="M306.671 83.25H51.5478C48.1462 83.1998 44.7896 82.433 41.6804 80.9958C38.5713 79.5586 35.7739 77.4807 33.4572 74.8876C31.1404 72.2944 29.3522 69.2397 28.2004 65.9077C27.0485 62.5756 26.557 59.0352 26.7553 55.5C26.7387 48.4648 29.2898 41.6856 33.8925 36.5338C38.4952 31.3821 44.8058 28.2424 51.5478 27.75H306.671C310.206 27.75 313.596 26.2882 316.096 23.6861C318.596 21.084 320 17.5549 320 13.875C320 10.1951 318.596 6.66596 316.096 4.06389C313.596 1.46183 310.206 0 306.671 0H51.5478C37.7331 0.503614 24.6463 6.57251 15.0475 16.9267C5.44871 27.2809 0.088245 41.1109 0.0967141 55.5C-0.0322381 57.7643 -0.0322381 60.0345 0.0967141 62.2987C-0.0317112 63.4047 -0.0317112 64.5228 0.0967141 65.6288V388.5C0.088245 402.889 5.44871 416.719 15.0475 427.073C24.6463 437.428 37.7331 443.496 51.5478 444H306.671C310.206 444 313.596 442.538 316.096 439.936C318.596 437.334 320 433.805 320 430.125V100.594V99.345V98.0962C320.008 94.3214 318.634 90.6853 316.158 87.9274C313.682 85.1695 310.289 83.4969 306.671 83.25ZM293.341 416.25H51.5478C44.8058 415.758 38.4952 412.618 33.8925 407.466C29.2898 402.314 26.7387 395.535 26.7553 388.5V104.756C34.3342 109.108 42.8959 111.265 51.5478 111H293.341V416.25Z" fill="black"/>
</svg>
