<svg width="367" height="394" viewBox="0 0 367 394" fill="none" xmlns="http://www.w3.org/2000/svg">
<path fill-rule="evenodd" clip-rule="evenodd" d="M197.054 23.9024C236.586 16.6159 278.043 -12.354 313.836 5.98867C349.245 24.1338 361.854 71.0668 366.411 110.69C370.379 145.199 353.606 177.926 337.121 208.476C324.712 231.473 294.558 239.874 283.841 263.711C265.911 303.593 293.543 367.164 255.868 389.205C222.306 408.839 184.03 363.303 152.478 340.561C128.842 323.524 116.631 296.81 97.3463 274.942C77.7968 252.773 52.2922 237.256 38.3682 211.161C19.701 176.177 -10.8307 136.613 3.88159 99.7793C18.4474 63.312 68.4722 58.8165 104.939 44.4924C134.837 32.7487 165.474 29.7231 197.054 23.9024Z" fill="#C4C4C4" fill-opacity="0.5"/>
</svg>
