<svg width="410" height="347" viewBox="0 0 410 347" fill="none" xmlns="http://www.w3.org/2000/svg">
<path fill-rule="evenodd" clip-rule="evenodd" d="M197.558 15.0024C230.562 5.26817 271.556 -11.1073 298.354 11.0831C325.818 33.8249 301.398 84.5582 319.359 115.86C341.036 153.636 404.48 161.39 409.628 205.004C414.425 245.651 371.818 276.292 341.381 302.447C314.234 325.776 281.104 339.242 246.318 345.342C214.367 350.945 183.53 340.979 151.522 335.741C114.253 329.643 71.6076 337.545 43.0018 312.076C13.729 286.012 5.62488 242.343 1.93809 202.556C-1.63587 163.987 -2.91254 119.136 22.486 90.6758C47.7006 62.4216 93.6733 76.1599 127.963 61.3387C153.942 50.1095 170.483 22.988 197.558 15.0024Z" fill="#C4C4C4" fill-opacity="0.5"/>
</svg>
