<svg width="860" height="597" viewBox="0 0 860 597" fill="none" xmlns="http://www.w3.org/2000/svg">
<path d="M787.812 486.039H783.562C794.325 486.039 803.041 477.612 803.041 467.222V19.6604C803.041 9.25636 794.325 0.84375 783.562 0.84375H76.8391C66.0761 0.84375 57.3454 9.25636 57.3454 19.6604V467.236C57.3454 477.626 66.0761 486.052 76.8391 486.052H72.1875L0.625 551.782C0.625 574.337 19.9183 596.906 43.5196 596.906H816.495C838.751 596.906 859.375 574.391 859.375 551.768L787.812 486.039ZM430.2 11.3426C431.693 11.2909 433.182 11.5246 434.577 12.0295C435.973 12.5345 437.247 13.3004 438.323 14.2815C439.398 15.2627 440.254 16.439 440.839 17.7401C441.424 19.0413 441.726 20.4406 441.727 21.8547C441.728 23.2688 441.428 24.6685 440.845 25.9704C440.262 27.2723 439.407 28.4496 438.333 29.432C437.258 30.4145 435.986 31.1819 434.591 31.6886C433.196 32.1952 431.708 32.4307 430.215 32.3809C427.336 32.2848 424.609 31.1354 422.608 29.1746C420.607 27.2138 419.487 24.5946 419.486 21.8683C419.484 19.142 420.599 16.5213 422.598 14.5581C424.597 12.5948 427.322 11.4421 430.2 11.3426ZM77.9841 499.586H782.002L824.052 538.221H509.32L503.624 531.068H356.777L351.067 538.221H35.9196L77.9841 499.586ZM491.773 581.165H368.199C363.962 581.165 352.684 581.165 352.684 567.51H507.302C507.302 581.165 495.795 581.165 491.773 581.165Z" fill="black"/>
</svg>
